{"glyphs":{":":{"x_min":0,"x_max":250,"ha":250,"o":"m 181 322 q 209 322 229 302 q 249 283 249 254 q 249 226 229 206 q 209 187 181 187 q 153 187 133 206 q 113 226 113 254 q 113 283 133 302 q 153 322 181 322 z m 141 123 q 169 123 189 103 q 209 83 209 55 q 209 27 189 7 q 169 -13 141 -13 q 113 -13 93 7 q 73 27 73 55 q 73 83 93 103 q 113 123 141 123 z"},"$":{"x_min":0,"x_max":467,"ha":467,"o":"m 449 602 l 457 602 q 516 602 516 557 q 516 524 493 506 q 470 488 429 488 l 365 488 l 353 488 q 312 488 313 460 q 314 450 322 432 l 403 250 q 430 189 430 142 q 430 84 385 42 q 340 0 279 0 l 271 -22 q 250 -71 208 -71 q 187 -71 172 -57 q 157 -43 157 -21 q 157 -13 162 0 l 150 0 q 115 0 100 11 q 85 21 85 46 q 85 77 108 95 q 131 112 171 112 l 261 112 q 314 112 314 149 q 314 161 309 174 l 221 377 l 214 392 q 195 433 195 466 q 195 522 232 559 q 268 596 329 602 l 335 619 q 353 663 396 663 q 443 663 449 602 z"},"?":{"x_min":0,"x_max":414,"ha":414,"o":"m 201 123 q 229 123 249 103 q 269 83 269 55 q 269 27 249 7 q 229 -13 201 -13 q 173 -13 153 7 q 133 27 133 55 q 133 83 153 103 q 173 123 201 123 z m 338 626 q 410 626 459 581 q 508 536 508 470 q 508 424 488 389 q 467 354 415 312 q 331 243 322 223 l 303 180 q 288 148 255 148 q 232 148 217 164 q 202 179 202 202 q 202 269 315 371 q 362 413 373 428 q 385 443 385 462 q 385 484 368 500 q 351 515 327 515 q 300 515 280 497 q 259 479 259 454 q 259 445 268 416 q 273 398 273 386 q 273 365 259 350 q 244 335 223 335 q 188 335 165 366 q 142 397 142 444 q 142 523 197 574 q 252 626 338 626 z"},"<":{"x_min":0,"x_max":500,"ha":500,"o":"m 466 611 l 466 488 l 164 340 l 466 190 l 466 69 l 33 288 l 33 392 z"},"'":{"x_min":0,"x_max":290,"ha":290,"o":"m 359 562 l 311 448 l 299 420 q 279 374 245 374 q 227 374 213 387 q 200 400 200 420 q 200 429 202 439 l 205 452 l 239 611 q 245 639 264 656 q 283 673 308 673 q 334 673 353 656 q 372 638 372 613 q 372 591 359 562 z"},"=":{"x_min":0,"x_max":467,"ha":467,"o":"m 211 430 l 500 430 q 562 430 562 390 q 562 362 541 346 q 519 330 480 330 l 191 330 q 129 330 129 371 q 129 398 151 414 q 173 430 211 430 z m 146 270 l 436 270 q 498 270 498 229 q 498 202 476 186 q 454 170 416 170 l 126 170 q 64 170 64 210 q 64 238 86 254 q 108 270 146 270 z"},"a":{"x_min":0,"x_max":467,"ha":467,"o":"m 379 106 l 433 106 q 495 106 495 63 q 495 34 473 17 q 451 0 412 0 l 350 0 q 308 0 292 33 q 256 0 222 0 l 166 0 q 112 0 79 38 q 46 77 46 139 q 46 232 111 306 q 176 380 257 380 q 320 380 349 337 q 373 374 413 374 q 434 374 448 360 q 463 346 463 326 q 463 312 455 293 l 450 280 z m 202 104 l 214 104 q 254 104 268 137 l 302 221 q 309 238 309 249 q 309 262 296 272 q 283 282 265 282 q 229 282 195 240 q 162 199 162 154 q 162 104 202 104 z"},"L":{"x_min":0,"x_max":752,"ha":752,"o":"m 596 343 l 450 -17 l 788 -17 q 856 -17 856 -63 q 856 -97 832 -115 q 808 -133 766 -133 l 402 -133 l 396 -147 q 362 -223 343 -254 q 323 -285 292 -313 q 210 -388 104 -388 q 19 -388 -37 -337 q -93 -286 -93 -207 q -93 -157 -69 -114 q -45 -71 -4 -47 q 49 -17 140 -17 l 312 -17 l 458 343 l 400 343 l 387 343 q 332 343 332 392 q 332 423 356 442 q 380 460 422 460 l 506 460 l 528 515 q 592 673 724 673 q 791 673 835 631 q 879 589 879 525 q 879 444 815 394 q 750 343 647 343 z m 644 460 l 666 460 q 703 460 729 478 q 755 497 755 523 q 755 562 718 562 q 685 562 657 494 z m 265 -133 l 136 -133 q 41 -133 41 -201 q 41 -229 62 -248 q 83 -267 114 -267 q 158 -267 198 -231 q 238 -195 265 -133 z"},"3":{"x_min":0,"x_max":467,"ha":467,"o":"m 407 366 q 482 316 482 228 q 482 160 444 97 q 380 -10 254 -10 q 173 -10 124 34 q 74 77 74 148 q 74 198 99 233 q 124 269 159 269 q 180 269 195 254 q 210 240 210 220 q 210 210 202 183 q 196 162 196 152 q 196 128 212 114 q 229 99 254 99 q 295 99 328 139 q 361 178 361 227 q 361 286 301 307 q 260 320 260 354 q 260 375 276 392 l 286 403 l 367 493 l 256 493 q 194 493 194 537 q 194 563 215 582 q 235 600 265 600 l 277 600 l 465 600 q 543 600 543 542 q 543 514 524 493 z"},";":{"x_min":0,"x_max":250,"ha":250,"o":"m 177 322 q 205 322 225 302 q 245 283 245 254 q 245 226 225 206 q 205 187 177 187 q 148 187 129 206 q 109 226 109 254 q 109 283 129 302 q 148 322 177 322 z m 93 11 q 76 38 76 58 q 76 85 96 104 q 115 123 144 123 q 173 123 192 104 q 211 84 211 55 q 211 9 147 -43 q 98 -84 76 -84 q 49 -84 49 -60 q 49 -50 62 -33 l 71 -19 z"},"J":{"x_min":0,"x_max":738,"ha":738,"o":"m 592 117 l 665 117 q 732 117 732 69 q 732 37 708 18 q 684 0 642 0 l 546 0 l 510 -90 q 451 -239 386 -300 q 322 -361 226 -361 q 135 -361 74 -301 q 13 -240 13 -150 q 13 -82 49 -25 q 84 33 150 69 q 233 116 379 116 l 456 117 l 570 400 q 599 474 599 500 q 599 523 579 540 q 558 557 530 557 q 482 557 444 514 q 405 471 405 419 q 405 391 418 374 q 432 357 465 344 q 500 330 500 299 q 500 271 479 253 q 458 234 427 234 q 365 234 321 286 q 277 337 277 411 q 277 518 357 597 q 438 676 545 676 q 625 676 677 629 q 730 581 730 509 q 730 464 705 400 z m 413 0 q 310 0 255 -20 q 205 -38 175 -72 q 146 -105 146 -146 q 146 -185 171 -211 q 196 -237 231 -237 q 277 -237 313 -198 q 350 -158 385 -70 z"},"V":{"x_min":0,"x_max":836,"ha":836,"o":"m 887 550 l 587 44 q 549 -20 498 -20 q 425 -20 425 71 l 417 400 q 417 489 402 520 q 386 551 342 551 q 302 551 263 510 q 224 468 224 424 q 224 389 246 367 q 269 346 306 346 q 314 346 323 347 q 333 347 335 347 q 395 347 395 298 q 395 265 361 243 q 328 222 277 222 q 196 222 145 276 q 93 330 93 413 q 93 514 176 594 q 258 673 362 673 q 462 673 511 604 q 529 579 536 534 q 543 490 543 400 l 543 207 l 780 609 l 792 630 q 804 651 818 659 q 833 666 861 666 l 880 667 l 966 667 q 1034 667 1034 620 q 1034 587 1010 568 q 986 550 944 550 z"},"\"":{"x_min":0,"x_max":472,"ha":472,"o":"m 359 562 l 311 448 l 299 420 q 279 374 245 374 q 227 374 213 387 q 200 400 200 420 q 200 429 202 439 l 205 452 l 239 611 q 245 639 264 656 q 283 673 308 673 q 334 673 353 656 q 372 638 372 613 q 372 591 359 562 z m 542 562 l 494 448 l 482 420 q 462 374 428 374 q 409 374 396 387 q 382 400 382 420 q 382 429 385 439 l 388 452 l 421 611 q 428 639 447 656 q 466 673 490 673 q 517 673 536 656 q 554 638 554 613 q 554 591 542 562 z"},"7":{"x_min":0,"x_max":467,"ha":467,"o":"m 388 490 l 234 490 q 171 490 171 535 q 171 566 193 583 q 216 600 256 600 l 450 600 q 534 600 534 540 q 534 518 517 490 l 251 50 l 244 38 q 216 -7 175 -7 q 154 -7 140 7 q 125 21 125 42 q 125 61 147 97 z"},"S":{"x_min":0,"x_max":667,"ha":667,"o":"m 474 333 l 519 277 l 545 246 q 620 153 620 49 q 620 -51 554 -127 q 463 -231 316 -231 q 202 -231 129 -161 q 57 -91 57 19 q 57 152 170 242 q 230 289 281 289 q 307 289 324 274 q 340 259 340 235 q 340 203 302 179 l 263 155 q 229 134 207 97 q 185 59 185 22 q 185 -36 224 -73 q 263 -111 324 -111 q 391 -111 440 -61 q 489 -11 489 57 q 489 100 469 135 q 449 170 383 244 q 336 295 316 333 l 185 333 q 117 333 117 380 q 117 414 141 432 q 165 450 208 450 l 291 450 q 301 547 379 610 q 458 673 568 673 q 650 673 702 628 q 754 583 754 510 q 754 414 672 363 q 625 333 523 333 z m 416 450 l 533 450 q 632 450 632 508 q 632 530 612 544 q 591 558 558 558 q 505 558 462 525 q 418 492 416 450 z"},"}":{"x_min":0,"x_max":433,"ha":433,"o":"m 288 270 q 258 294 258 326 q 258 352 275 396 l 318 509 l 323 522 q 332 544 332 557 q 333 577 290 580 q 257 582 243 593 q 229 604 229 628 q 229 662 253 681 q 276 700 316 700 l 336 700 l 353 700 l 388 699 q 488 699 488 630 q 488 596 469 546 l 419 417 q 406 382 406 362 q 406 344 430 329 q 450 317 456 309 q 462 301 462 285 q 462 226 395 211 q 361 203 342 184 q 323 165 307 123 l 267 21 q 208 -132 75 -132 l 53 -133 l 36 -133 l 14 -133 q -44 -133 -44 -85 q -44 -13 53 -13 q 96 -13 112 0 q 127 12 146 58 l 179 145 q 198 194 221 221 q 244 248 288 270 z"},"Z":{"x_min":0,"x_max":690,"ha":690,"o":"m 437 306 q 553 219 563 117 l 627 117 q 695 117 695 70 q 695 37 671 19 q 647 0 605 0 l 569 0 q 558 -153 455 -259 q 351 -365 212 -365 q 105 -365 34 -297 q -37 -229 -37 -126 q -37 -16 42 51 q 121 117 252 117 l 433 117 q 415 186 340 226 l 325 233 q 284 255 284 290 q 284 312 312 344 l 488 550 l 286 550 q 219 550 219 596 q 219 629 242 648 q 266 667 309 667 l 591 667 q 672 667 672 603 q 672 575 645 544 z m 440 0 l 325 0 q 215 0 172 -18 q 91 -50 91 -128 q 91 -177 128 -211 q 165 -245 218 -245 q 298 -245 362 -175 q 425 -104 440 0 z"},"x":{"x_min":0,"x_max":341,"ha":341,"o":"m 224 276 l 279 339 q 316 380 348 380 q 370 380 384 366 q 399 352 399 330 q 399 300 360 262 l 277 179 l 317 84 l 322 75 q 327 62 327 51 q 327 29 308 11 q 289 -7 265 -7 q 236 -7 219 28 l 189 95 l 132 34 l 122 23 q 93 -7 63 -7 q 41 -7 27 8 q 12 22 12 43 q 12 70 49 108 l 136 198 l 99 285 q 89 307 89 319 q 89 343 109 362 q 128 380 152 380 q 181 380 198 340 z"},")":{"x_min":0,"x_max":365,"ha":365,"o":"m 338 720 q 381 720 400 665 q 426 591 426 435 q 426 190 266 -29 q 215 -98 183 -125 q 151 -153 122 -153 q 99 -153 84 -140 q 69 -126 69 -105 q 69 -85 99 -48 q 207 87 254 211 q 302 335 302 479 q 302 541 290 646 q 289 661 289 670 q 289 720 338 720 z"},"&":{"x_min":0,"x_max":791,"ha":791,"o":"m 699 369 l 716 369 q 778 369 778 326 q 778 295 757 279 q 735 262 697 262 l 655 262 l 564 43 q 485 -149 291 -149 q 184 -149 118 -85 q 53 -21 53 85 q 53 156 89 219 q 125 282 185 317 q 227 341 307 355 q 269 403 269 454 q 269 503 294 549 q 320 595 364 623 q 428 664 536 664 l 649 664 q 711 664 711 621 q 711 590 690 574 q 669 557 630 557 l 529 557 q 466 557 431 535 q 379 501 379 444 q 379 410 407 389 q 435 369 483 369 l 576 369 l 602 431 l 607 443 q 629 496 676 496 q 697 496 711 482 q 726 468 726 449 q 726 434 713 403 z m 532 262 l 401 262 q 315 262 269 244 q 224 225 195 182 q 166 140 166 91 q 166 34 204 -2 q 242 -39 302 -39 q 350 -39 390 -10 q 431 19 450 65 z"},"_":{"x_min":0,"x_max":500,"ha":500,"o":"m 0 -48 l 500 -48 l 500 -159 l 0 -159 z"},"v":{"x_min":0,"x_max":335,"ha":335,"o":"m 169 172 l 282 326 l 291 339 q 319 380 354 380 q 377 380 392 366 q 407 352 407 329 q 407 305 377 267 l 197 33 q 167 -7 125 -7 q 91 -7 71 17 q 51 42 51 83 q 51 92 51 98 l 69 292 q 72 332 90 353 q 108 374 138 374 q 185 374 185 327 q 185 320 183 303 z"},"O":{"x_min":0,"x_max":659,"ha":659,"o":"m 151 333 l 127 333 q 59 333 59 380 q 59 413 83 432 q 106 450 149 450 l 218 450 l 231 469 q 383 676 537 676 q 613 676 661 632 q 709 588 709 519 q 709 421 618 369 q 557 333 435 333 l 288 333 q 216 197 216 101 q 216 47 244 15 q 272 -17 319 -17 q 384 -17 448 59 q 512 135 543 250 l 551 279 q 567 339 615 339 q 641 339 657 320 q 674 301 674 271 q 674 175 592 45 q 478 -137 316 -137 q 216 -137 153 -70 q 89 -3 89 103 q 89 202 151 333 z m 364 450 l 459 450 q 581 450 581 516 q 581 536 565 549 q 549 562 524 562 q 487 562 444 532 q 401 502 364 450 z"},"(":{"x_min":0,"x_max":365,"ha":365,"o":"m 436 720 q 459 720 474 707 q 489 693 489 672 q 489 652 459 615 q 351 479 303 355 q 256 232 256 88 q 256 23 268 -79 q 269 -94 269 -103 q 269 -153 219 -153 q 177 -153 157 -98 q 131 -23 131 132 q 131 376 292 596 q 344 666 375 693 q 407 720 436 720 z"},"C":{"x_min":0,"x_max":576,"ha":576,"o":"m 294 333 q 228 216 228 116 q 228 45 260 14 q 293 -17 369 -17 l 640 -17 q 708 -17 708 -62 q 708 -96 684 -115 q 660 -133 617 -133 l 334 -133 q 263 -133 221 -114 q 162 -86 128 -30 q 94 27 94 100 q 94 198 154 333 l 126 333 l 114 333 q 59 333 59 380 q 59 410 82 430 q 104 450 136 450 l 149 450 l 220 450 q 264 523 338 591 q 433 677 543 677 q 615 677 663 632 q 710 588 710 519 q 710 421 619 369 q 557 333 421 333 z m 367 450 l 461 450 q 583 450 583 515 q 583 536 567 549 q 551 562 527 562 q 489 562 446 531 q 402 501 367 450 z"},"W":{"x_min":0,"x_max":1174,"ha":1174,"o":"m 1210 550 l 909 33 q 875 -25 828 -25 q 791 -25 771 -2 q 751 21 751 62 l 764 413 l 586 33 q 559 -25 508 -25 q 472 -25 451 -2 q 430 21 430 62 l 420 400 q 420 489 405 520 q 389 551 345 551 q 305 551 266 510 q 227 468 227 425 q 227 390 249 368 q 271 346 307 346 q 317 346 326 346 q 335 347 338 347 q 397 347 397 297 q 397 265 364 243 q 330 221 279 221 q 200 221 148 275 q 96 330 96 413 q 96 514 178 594 q 261 673 365 673 q 460 673 503 617 q 545 562 545 438 l 546 400 l 549 230 l 723 608 q 752 673 812 673 q 847 673 868 653 q 889 633 889 599 l 888 594 l 879 222 l 1099 601 l 1109 620 q 1136 667 1192 667 l 1287 667 q 1355 667 1355 619 q 1355 586 1331 568 q 1307 550 1265 550 z"},"A":{"x_min":0,"x_max":1044,"ha":1044,"o":"m 788 250 l 652 250 l 491 -30 q 376 -229 220 -229 q 124 -229 58 -159 q -7 -90 -7 12 q -7 95 43 172 q 94 249 181 299 q 246 336 325 352 q 404 367 535 367 l 571 367 l 610 438 q 690 585 807 635 q 881 667 1002 667 q 1033 667 1050 653 q 1068 639 1068 615 q 1068 604 1062 588 l 1058 577 l 974 367 l 1011 367 l 1023 367 q 1078 367 1078 319 q 1078 291 1056 270 q 1033 250 1001 250 l 988 250 l 926 250 l 872 117 l 952 117 l 964 117 q 1019 117 1019 70 q 1019 41 997 20 q 974 0 942 0 l 929 0 l 824 0 q 782 0 756 22 q 729 43 729 78 q 729 105 749 154 z m 835 367 l 906 540 q 854 537 819 507 q 783 478 738 400 l 718 367 z m 504 250 l 463 250 q 323 250 241 198 q 189 165 158 115 q 127 65 127 15 q 127 -32 157 -65 q 187 -98 229 -98 q 303 -98 359 0 z"},"f":{"x_min":0,"x_max":336,"ha":336,"o":"m 315 374 l 383 374 q 445 374 445 330 q 445 300 423 284 q 401 267 362 267 l 272 267 l 53 -273 q 26 -340 -23 -340 q -44 -340 -59 -327 q -74 -314 -74 -294 q -74 -280 -61 -248 l 148 267 l 115 267 q 53 267 53 310 q 53 340 75 357 q 97 374 136 374 l 191 374 l 253 526 q 285 603 328 635 q 372 667 445 667 l 501 667 q 563 667 563 624 q 563 593 542 576 q 520 559 480 559 l 466 559 q 425 559 401 542 q 377 525 361 486 z"},"Q":{"x_min":0,"x_max":714,"ha":714,"o":"m 483 52 l 505 12 q 515 -5 528 -11 q 542 -17 573 -17 l 754 -17 q 821 -17 821 -64 q 821 -97 798 -115 q 774 -133 731 -133 l 502 -133 q 451 -133 421 -82 l 377 -6 q 336 -21 294 -21 q 203 -21 150 43 q 97 106 97 216 q 97 300 129 393 q 162 486 212 547 q 261 606 323 640 q 386 673 448 673 q 540 673 596 609 q 652 545 652 441 q 652 333 605 224 q 558 116 483 52 z m 421 160 q 469 218 496 292 q 522 365 522 438 q 522 492 498 523 q 474 554 432 554 q 361 554 304 466 q 271 417 249 344 q 227 271 227 215 q 227 166 248 133 q 270 101 303 101 q 307 101 317 103 l 298 133 q 276 170 276 192 q 276 217 293 234 q 310 251 334 251 q 355 251 368 241 q 381 231 398 201 z"},"w":{"x_min":0,"x_max":569,"ha":569,"o":"m 402 182 l 517 331 l 526 343 q 555 380 590 380 q 612 380 626 366 q 640 352 640 330 q 640 307 610 269 l 427 39 q 391 -7 353 -7 q 321 -7 299 17 q 277 41 277 76 q 277 84 278 94 l 294 182 l 195 39 q 164 -7 125 -7 q 93 -7 72 19 q 51 44 51 84 q 51 90 51 94 l 65 298 q 68 338 86 359 q 104 380 134 380 q 180 380 180 330 q 180 322 179 312 l 166 175 l 274 331 q 309 380 355 380 q 383 380 400 364 q 417 348 417 321 q 417 310 416 304 z"},"-":{"x_min":0,"x_max":191,"ha":191,"o":"m 93 250 l 173 250 l 183 250 q 229 250 229 208 q 229 167 183 167 l 173 167 l 93 167 l 84 167 q 63 167 51 178 q 38 189 38 208 q 38 227 50 239 q 63 250 84 250 z"},"E":{"x_min":0,"x_max":784,"ha":784,"o":"m 461 367 l 560 605 q 576 645 592 656 q 608 667 652 667 l 904 667 q 972 667 972 621 q 972 590 949 570 q 927 550 895 550 l 881 550 l 673 550 l 599 367 l 660 367 l 673 367 q 728 367 728 319 q 728 291 705 270 q 683 250 650 250 l 637 250 l 552 250 l 443 -17 l 781 -17 l 793 -17 q 848 -17 848 -62 q 848 -93 826 -113 q 804 -133 771 -133 l 758 -133 l 396 -133 l 390 -147 q 355 -223 336 -254 q 317 -285 286 -313 q 204 -388 98 -388 q 12 -388 -44 -337 q -100 -286 -100 -207 q -100 -157 -76 -114 q -52 -71 -11 -47 q 42 -17 133 -17 l 306 -17 l 414 250 l 410 250 l 398 250 q 343 250 343 298 q 343 327 366 347 q 388 367 420 367 l 434 367 z m 258 -133 l 129 -133 q 34 -133 34 -201 q 34 -229 55 -248 q 76 -267 107 -267 q 151 -267 192 -231 q 232 -195 258 -133 z"},"s":{"x_min":0,"x_max":349,"ha":349,"o":"m 208 240 l 199 218 q 178 169 138 169 q 118 169 102 183 q 86 197 86 215 q 86 232 101 261 l 166 393 q 189 440 225 440 q 244 440 258 427 q 271 415 271 398 q 271 394 269 379 q 267 368 267 360 q 267 329 290 297 l 317 258 q 360 199 360 144 q 360 83 314 41 q 268 0 200 0 l 98 0 q 36 0 36 43 q 36 73 58 90 q 80 106 118 106 l 175 106 q 243 106 243 156 q 243 174 230 198 z"},">":{"x_min":0,"x_max":500,"ha":500,"o":"m 33 69 l 33 191 l 336 340 l 33 489 l 33 610 l 466 391 l 466 288 z"},"l":{"x_min":0,"x_max":266,"ha":266,"o":"m 177 106 l 228 106 q 290 106 290 63 q 290 33 268 17 q 247 0 208 0 l 120 0 q 83 0 62 17 q 42 34 42 63 q 42 78 56 113 l 253 599 l 258 612 q 281 667 330 667 q 351 667 365 653 q 379 639 379 620 q 379 605 372 587 l 367 574 z"},"8":{"x_min":0,"x_max":467,"ha":467,"o":"m 431 323 q 479 279 479 216 q 479 124 410 57 q 341 -10 247 -10 q 170 -10 123 34 q 75 78 75 147 q 75 212 112 265 q 149 317 209 338 q 173 375 173 425 q 173 499 237 553 q 300 607 387 607 q 456 607 499 568 q 542 530 542 467 q 542 416 512 378 q 483 340 431 323 z m 372 505 q 340 505 314 479 q 288 452 288 419 q 288 397 303 382 q 319 368 343 368 q 375 368 400 394 q 426 420 426 453 q 426 505 372 505 z m 298 278 q 258 278 227 244 q 195 209 195 166 q 195 138 212 120 q 229 102 255 102 q 294 102 327 139 q 360 175 360 219 q 360 245 343 262 q 325 278 298 278 z"},"\\":{"x_min":0,"x_max":442,"ha":442,"o":"m 304 654 l 346 -91 q 347 -103 347 -104 q 347 -125 333 -139 q 319 -153 299 -153 q 266 -153 264 -108 l 222 638 q 221 648 221 650 q 221 671 235 686 q 249 700 269 700 q 301 700 304 664 z"},"e":{"x_min":0,"x_max":397,"ha":397,"o":"m 163 143 q 163 106 218 106 l 363 106 q 425 106 425 63 q 425 33 403 17 q 381 0 342 0 l 204 0 q 127 0 87 38 q 46 76 46 149 q 46 244 110 312 q 174 380 262 380 q 326 380 365 347 q 403 313 403 259 q 403 193 350 161 q 320 143 261 143 z m 187 232 l 240 232 q 292 232 291 255 q 290 281 257 281 q 212 281 187 232 z"},"b":{"x_min":0,"x_max":434,"ha":434,"o":"m 288 374 q 310 380 327 380 q 384 380 419 338 q 454 296 454 229 q 454 98 354 25 q 318 0 280 0 l 234 0 q 186 0 151 35 q 131 0 87 0 q 66 0 51 14 q 37 27 37 47 q 37 62 44 81 l 50 94 l 254 598 l 260 612 q 283 667 331 667 q 353 667 367 653 q 382 640 382 620 q 382 605 375 586 l 369 573 z m 191 134 q 215 103 248 103 q 271 103 288 116 q 310 134 327 170 q 344 206 344 234 q 344 256 331 270 q 318 284 298 284 q 251 284 224 215 z"},"%":{"x_min":0,"x_max":678,"ha":678,"o":"m 328 631 q 372 631 397 604 q 422 578 422 532 q 422 479 398 425 q 374 371 337 342 q 299 312 245 312 q 200 312 174 337 q 148 362 148 405 q 148 484 203 559 q 256 631 328 631 z m 322 562 q 295 564 262 510 q 229 457 229 412 q 229 382 252 382 q 281 382 307 422 q 344 480 344 534 q 344 561 322 562 z m 256 28 l 538 597 l 540 602 q 552 625 573 625 q 599 625 599 601 q 599 592 592 578 l 311 10 q 297 -18 276 -18 q 250 -18 250 6 q 250 15 256 28 z m 602 314 q 646 314 671 288 q 697 261 697 216 q 697 163 672 108 q 648 54 611 25 q 573 -5 519 -5 q 475 -5 448 21 q 422 46 422 89 q 422 168 477 242 q 530 314 602 314 z m 596 246 q 569 248 536 194 q 503 140 503 95 q 503 66 526 66 q 556 66 581 105 q 618 164 618 218 q 618 245 596 246 z"},"m":{"x_min":0,"x_max":726,"ha":726,"o":"m 633 106 l 691 106 q 753 106 753 63 q 753 33 731 17 q 709 0 671 0 l 572 0 q 540 0 520 17 q 500 34 500 62 q 500 81 513 114 l 559 226 q 562 235 562 244 q 562 275 530 275 q 505 275 481 253 q 457 230 442 193 l 387 59 q 360 -7 309 -7 q 289 -7 275 6 q 261 20 261 38 q 261 52 268 71 l 273 84 l 329 220 q 336 238 336 249 q 336 259 326 267 q 316 275 303 275 q 250 275 220 199 l 163 59 q 136 -7 85 -7 q 65 -7 51 6 q 36 19 36 38 q 36 52 43 71 l 49 84 l 146 323 q 167 374 208 374 q 250 374 260 333 q 293 362 314 371 q 335 380 365 380 q 431 380 463 323 q 518 380 586 380 q 633 380 665 353 q 696 326 696 287 q 696 262 686 235 z"},"#":{"x_min":0,"x_max":467,"ha":467,"o":"m 329 428 l 404 428 l 453 550 q 476 606 520 606 q 540 606 553 595 q 566 583 566 565 q 566 554 557 529 l 515 428 q 569 425 569 389 q 569 361 548 346 q 526 332 487 332 l 476 332 l 450 269 q 504 265 504 229 q 504 202 483 187 q 462 172 423 172 l 411 172 l 361 50 q 338 -7 295 -7 q 275 -7 261 5 q 248 16 248 33 q 248 45 258 71 l 299 172 l 224 172 l 174 50 q 151 -7 108 -7 q 88 -7 75 5 q 61 16 61 33 q 61 46 71 71 l 112 172 q 58 175 58 211 q 58 238 80 253 q 101 269 140 269 l 151 269 l 177 332 q 123 335 123 371 q 123 398 144 413 q 166 428 204 428 l 217 428 l 267 550 q 290 606 333 606 q 353 606 366 595 q 379 583 379 565 q 379 553 370 529 z m 289 332 l 263 269 l 338 269 l 364 332 z"},",":{"x_min":0,"x_max":250,"ha":250,"o":"m 93 11 q 76 38 76 58 q 76 85 96 104 q 115 123 144 123 q 173 123 192 104 q 211 84 211 55 q 211 9 147 -43 q 98 -84 76 -84 q 49 -84 49 -60 q 49 -50 62 -33 l 71 -19 z"},"n":{"x_min":0,"x_max":500,"ha":500,"o":"m 408 106 l 466 106 q 528 106 528 63 q 528 33 506 17 q 484 0 446 0 l 344 0 q 314 0 294 18 q 273 36 273 63 q 273 80 287 113 l 330 220 q 337 236 337 247 q 338 258 328 267 q 318 275 302 275 q 252 275 221 199 l 164 58 q 138 -7 86 -7 q 65 -7 51 6 q 36 19 36 37 q 36 51 44 70 l 49 83 l 148 326 q 167 374 213 374 q 250 374 267 340 q 319 380 366 380 q 412 380 442 354 q 472 328 472 287 q 472 265 461 238 z"},"h":{"x_min":0,"x_max":500,"ha":500,"o":"m 281 353 q 332 380 365 380 q 412 380 442 354 q 472 328 472 288 q 472 263 460 234 l 409 106 l 465 106 q 527 106 527 63 q 527 33 505 17 q 483 0 444 0 l 346 0 q 315 0 294 18 q 272 36 272 62 q 272 79 284 106 l 329 217 q 337 238 337 249 q 337 276 300 276 q 250 276 216 191 l 161 57 q 135 -7 84 -7 q 64 -7 50 6 q 36 19 36 37 q 36 50 43 69 l 49 82 l 261 606 q 289 673 337 673 q 357 673 372 660 q 386 646 386 627 q 386 612 374 581 z"},"z":{"x_min":0,"x_max":390,"ha":390,"o":"m 228 106 l 351 106 q 413 106 413 63 q 413 33 391 17 q 369 0 330 0 l 103 0 q 72 0 54 15 q 37 30 37 56 q 37 81 69 113 l 229 267 l 175 265 l 163 265 q 109 265 109 309 q 109 336 130 355 q 151 374 182 374 l 194 374 l 346 374 q 414 374 414 316 q 414 286 383 256 z"},"B":{"x_min":0,"x_max":854,"ha":854,"o":"m 534 550 l 479 550 l 466 550 q 411 550 411 597 q 411 626 434 646 q 456 667 488 667 l 501 667 l 700 667 q 796 667 848 624 q 900 582 900 504 q 900 437 861 383 q 822 329 756 306 q 845 263 845 157 q 845 89 808 24 q 771 -42 711 -81 q 629 -133 465 -133 l 393 -133 l 387 -147 q 353 -223 333 -254 q 314 -285 283 -313 q 202 -388 97 -388 q 12 -388 -44 -337 q -100 -287 -100 -208 q -100 -158 -76 -115 q -52 -71 -11 -47 q 42 -17 133 -17 l 304 -17 z m 596 367 l 625 367 q 694 367 729 399 q 748 416 760 442 q 772 468 772 491 q 772 531 737 544 q 723 550 678 550 l 671 550 z m 441 -17 l 480 -17 q 585 -17 639 20 q 674 42 696 83 q 717 123 717 163 q 717 211 689 230 q 660 250 589 250 l 549 250 z m 256 -133 l 129 -133 q 34 -133 34 -202 q 34 -229 54 -248 q 75 -267 105 -267 q 149 -267 189 -232 q 229 -196 256 -133 z"},"K":{"x_min":0,"x_max":787,"ha":787,"o":"m 632 302 l 735 22 q 749 -14 794 -14 l 952 -14 q 1021 -14 1021 -62 q 1021 -96 997 -115 q 972 -133 929 -133 l 767 -133 q 702 -133 676 -115 q 649 -98 628 -41 l 499 309 l 397 60 q 368 -13 314 -13 q 292 -13 275 1 q 259 16 259 36 q 259 52 268 73 l 273 87 l 400 400 q 429 471 429 499 q 429 522 408 540 q 388 557 360 557 q 310 557 270 515 q 230 474 230 422 q 230 365 292 343 q 329 330 329 297 q 329 270 307 252 q 286 234 254 234 q 193 234 150 286 q 106 338 106 410 q 106 517 186 596 q 266 676 374 676 q 454 676 507 629 q 561 583 561 512 q 561 462 536 400 l 519 358 l 775 626 q 816 670 851 670 q 874 670 890 655 q 905 639 905 616 q 905 587 866 545 z"},"R":{"x_min":0,"x_max":921,"ha":921,"o":"m 776 275 l 879 30 q 899 -17 931 -17 l 951 -17 l 1155 -17 q 1222 -17 1222 -62 q 1222 -96 1199 -115 q 1175 -133 1132 -133 l 907 -133 q 814 -133 778 -45 l 637 294 l 571 133 q 524 18 505 -23 q 485 -64 459 -99 q 366 -225 224 -225 q 121 -225 57 -160 q -7 -96 -7 9 q -7 145 94 249 q 148 304 229 338 q 311 372 391 372 q 429 372 453 354 q 477 337 477 309 q 477 279 451 261 q 437 250 395 246 q 297 237 238 202 q 188 171 159 124 q 130 76 130 23 q 130 -32 158 -64 q 187 -96 235 -96 q 294 -96 338 -45 q 382 5 434 133 l 603 550 l 553 550 q 485 550 485 596 q 485 630 509 648 q 532 667 575 667 l 737 667 q 801 667 830 659 q 860 652 887 629 q 944 582 944 496 q 944 417 898 357 q 852 296 776 275 z m 666 367 l 680 368 q 736 371 763 389 q 816 424 816 482 q 816 550 751 550 l 741 550 z"},"T":{"x_min":0,"x_max":746,"ha":746,"o":"m 741 550 l 572 133 q 511 -18 479 -73 q 446 -127 396 -167 q 321 -225 225 -225 q 122 -225 57 -160 q -7 -95 -7 9 q -7 146 94 249 q 148 304 230 338 q 312 372 391 372 q 429 372 453 354 q 477 337 477 309 q 477 279 451 261 q 437 250 395 246 q 297 237 238 202 q 188 171 159 124 q 130 76 130 22 q 130 -32 159 -64 q 188 -96 237 -96 q 296 -96 340 -45 q 384 6 436 133 l 604 550 l 509 550 q 442 550 442 598 q 442 630 466 648 q 490 667 532 667 l 853 667 l 866 667 l 900 659 q 920 647 920 619 q 920 586 896 568 q 873 550 830 550 z"},"P":{"x_min":0,"x_max":814,"ha":814,"o":"m 650 333 l 569 133 q 508 -15 475 -71 q 442 -127 392 -167 q 319 -225 222 -225 q 120 -225 57 -160 q -7 -96 -7 7 q -7 145 94 248 q 148 304 229 338 q 311 372 391 372 q 430 372 453 354 q 477 337 477 309 q 477 279 451 261 q 437 250 395 246 q 298 237 238 202 q 188 172 160 124 q 131 76 131 22 q 131 -32 159 -64 q 187 -96 234 -96 q 294 -96 337 -45 q 381 5 433 133 l 603 550 l 549 550 q 482 550 482 597 q 482 630 506 648 q 529 667 572 667 l 758 667 q 852 667 897 631 q 941 596 941 522 q 941 432 872 375 q 822 333 717 333 z m 697 450 l 737 450 q 815 450 815 514 q 815 550 771 550 l 738 550 z"},"|":{"x_min":0,"x_max":500,"ha":500,"o":"m 188 667 l 312 667 l 312 -167 l 188 -167 z"},"t":{"x_min":0,"x_max":301,"ha":301,"o":"m 290 374 l 305 374 q 367 374 367 330 q 367 300 345 284 q 323 267 285 267 l 249 267 l 184 106 l 238 106 q 300 106 300 63 q 300 33 279 17 q 257 0 218 0 l 130 0 q 93 0 72 17 q 50 34 50 63 q 50 82 59 104 l 68 125 l 125 267 l 118 267 q 63 267 63 310 q 63 340 85 357 q 107 374 146 374 l 168 374 l 194 438 l 200 451 q 223 505 272 505 q 292 505 306 491 q 321 478 321 459 q 321 440 308 412 z"},"M":{"x_min":0,"x_max":1064,"ha":1064,"o":"m 910 117 l 989 117 q 1057 117 1057 70 q 1057 37 1033 19 q 1009 0 966 0 l 874 0 q 823 0 795 21 q 768 42 768 82 q 768 107 788 156 l 914 450 l 819 349 q 786 312 755 312 q 716 312 704 367 l 690 427 l 571 133 q 510 -18 478 -73 q 445 -127 394 -167 q 320 -225 224 -225 q 121 -225 57 -160 q -7 -95 -7 9 q -7 145 94 249 q 148 304 229 338 q 310 372 389 372 q 429 372 453 354 q 477 337 477 309 q 477 279 451 261 q 437 250 395 246 q 297 237 238 202 q 188 172 159 124 q 130 76 130 24 q 130 -32 159 -64 q 187 -96 236 -96 q 295 -96 339 -45 q 383 5 435 133 l 629 610 q 654 673 697 673 q 725 673 740 656 q 756 638 768 594 l 798 482 l 944 626 q 993 673 1035 673 q 1064 673 1084 656 q 1104 638 1104 612 q 1104 596 1097 577 l 1085 550 z"},"g":{"x_min":0,"x_max":436,"ha":436,"o":"m 333 -14 l 392 -14 q 454 -14 454 -57 q 454 -86 432 -103 q 410 -120 372 -120 l 291 -120 l 270 -170 q 195 -354 52 -354 q -23 -354 -73 -307 q -124 -261 -124 -191 q -124 -146 -99 -106 q -75 -66 -33 -42 q 19 -14 106 -14 l 211 -14 l 226 24 q 195 6 168 6 q 116 6 83 42 q 51 78 51 136 q 51 230 117 305 q 183 380 265 380 q 325 380 354 341 q 377 380 419 380 q 440 380 454 367 q 469 354 469 334 q 469 319 456 288 z m 270 133 l 310 229 q 314 242 314 250 q 314 264 302 274 q 289 284 269 284 q 234 284 202 243 q 170 203 170 158 q 170 107 218 107 q 259 107 270 133 z m 167 -120 l 83 -120 q 39 -120 15 -139 q -9 -157 -9 -191 q -9 -214 7 -230 q 24 -246 48 -246 q 83 -246 110 -218 q 136 -190 167 -120 z"},"j":{"x_min":0,"x_max":293,"ha":293,"o":"m 190 -20 l 244 -20 q 306 -20 306 -63 q 306 -93 284 -110 q 262 -126 223 -126 l 147 -126 l 112 -196 l 98 -225 q 31 -360 -95 -360 q -171 -360 -222 -314 q -273 -268 -273 -199 q -273 -158 -253 -119 q -233 -81 -201 -58 q -147 -20 -36 -20 l 65 -20 l 176 253 l 124 253 q 62 253 62 297 q 62 327 83 343 q 105 360 145 360 l 261 360 q 320 360 320 311 q 320 292 310 267 z m 22 -126 l -46 -126 q -158 -126 -158 -199 q -158 -222 -143 -237 q -127 -252 -102 -252 q -66 -252 -39 -224 q -11 -197 22 -126 z m 312 529 q 340 529 360 510 q 379 490 379 461 q 379 433 360 413 q 340 394 312 394 q 283 394 263 413 q 244 433 244 461 q 244 490 263 510 q 283 529 312 529 z"},"i":{"x_min":0,"x_max":271,"ha":271,"o":"m 182 106 l 237 106 q 298 106 298 63 q 298 33 277 17 q 255 0 216 0 l 138 0 q 95 0 71 18 q 46 35 46 65 q 46 82 56 106 l 137 305 l 142 318 q 165 374 214 374 q 235 374 250 360 q 265 346 265 327 q 265 312 251 279 z m 246 529 q 274 529 294 510 q 314 490 314 461 q 314 433 294 413 q 274 394 246 394 q 218 394 198 413 q 178 433 178 461 q 178 490 198 510 q 218 529 246 529 z"},"y":{"x_min":0,"x_max":429,"ha":429,"o":"m 325 -20 l 381 -20 q 443 -20 443 -63 q 443 -93 422 -110 q 400 -126 361 -126 l 282 -126 q 268 -168 230 -238 q 166 -360 43 -360 q -32 -360 -83 -313 q -133 -266 -133 -197 q -133 -148 -106 -107 q -78 -65 -33 -44 q 19 -20 120 -20 l 199 -20 l 213 15 q 177 0 147 0 q 95 0 62 27 q 30 53 30 96 q 30 122 51 173 l 104 305 l 109 318 q 133 374 182 374 q 204 374 218 360 q 232 346 232 325 q 232 311 220 279 l 172 163 q 161 134 160 126 q 159 102 190 102 q 213 102 236 115 q 260 128 266 145 l 332 305 l 336 318 q 359 374 409 374 q 431 374 445 360 q 459 346 459 325 q 459 311 452 292 l 446 279 z m 165 -126 l 97 -126 q -16 -126 -16 -197 q -16 -222 0 -237 q 15 -252 41 -252 q 77 -252 104 -224 q 132 -196 165 -126 z"},"@":{"x_min":0,"x_max":730,"ha":730,"o":"m 598 256 l 628 256 q 667 256 696 309 q 725 362 725 433 q 725 506 672 549 q 620 593 532 593 q 389 593 297 483 q 221 393 221 281 q 221 171 300 115 q 334 90 367 86 q 400 82 553 82 l 618 82 q 636 82 648 69 q 660 57 660 39 q 660 -13 584 -13 l 458 -13 q 317 -13 246 35 q 186 76 153 140 q 121 205 121 281 q 121 350 147 420 q 174 491 221 546 q 278 613 359 650 q 439 687 529 687 q 660 687 741 617 q 823 547 823 437 q 823 329 761 243 q 699 157 620 157 l 570 157 q 531 157 517 188 q 482 157 451 157 l 399 157 q 349 157 319 192 q 288 228 288 286 q 288 373 348 441 q 408 510 484 510 q 542 510 569 470 q 592 504 628 504 q 648 504 662 491 q 675 479 675 460 q 675 447 668 430 l 663 417 z m 433 253 l 444 253 q 481 253 494 284 l 525 362 q 532 378 532 388 q 532 401 520 410 q 507 419 491 419 q 458 419 426 380 q 395 341 395 300 q 395 253 433 253 z"},".":{"x_min":0,"x_max":250,"ha":250,"o":"m 142 123 q 169 123 189 103 q 209 83 209 55 q 209 27 189 7 q 169 -13 142 -13 q 113 -13 93 7 q 73 27 73 55 q 73 83 93 103 q 113 123 142 123 z"},"p":{"x_min":0,"x_max":437,"ha":437,"o":"m 152 38 l 24 -275 q -2 -340 -53 -340 q -72 -340 -86 -327 q -100 -314 -100 -296 q -100 -281 -88 -250 l 147 330 q 166 374 210 374 q 241 374 259 344 q 293 380 342 380 q 394 380 425 342 q 457 303 457 239 q 457 119 382 43 q 357 19 332 9 q 306 0 259 0 q 209 0 191 7 q 172 14 152 38 z m 192 138 q 204 116 215 110 q 226 104 250 104 q 285 104 304 129 q 344 182 344 237 q 344 284 299 284 q 250 284 228 227 q 226 221 224 216 z"},"X":{"x_min":0,"x_max":771,"ha":771,"o":"m 611 323 l 672 15 q 676 -4 687 -10 q 698 -17 725 -17 l 911 -17 q 979 -17 979 -62 q 979 -96 955 -115 q 931 -133 888 -133 l 703 -133 l 677 -133 q 618 -133 592 -111 q 566 -89 554 -29 l 511 199 l 368 25 l 357 12 q 325 -26 288 -26 q 263 -26 247 -10 q 231 5 231 30 q 231 56 265 98 l 477 358 l 458 461 q 443 544 386 544 q 340 544 302 502 q 265 460 265 411 q 265 356 319 346 q 377 336 377 292 q 377 262 353 241 q 328 221 291 221 q 224 221 179 272 q 133 322 133 396 q 133 505 215 587 q 296 668 403 668 q 467 668 512 630 q 557 592 571 525 l 581 477 l 689 613 q 702 628 708 636 q 722 655 734 661 q 747 667 773 667 l 876 667 q 944 667 944 620 q 944 586 920 568 q 897 550 854 550 l 789 550 z"},"*":{"x_min":0,"x_max":467,"ha":467,"o":"m 343 506 l 241 540 q 218 548 211 554 q 205 561 205 576 q 205 604 222 622 q 239 641 265 641 q 278 641 284 636 q 290 631 301 611 l 352 517 l 352 623 q 352 651 361 662 q 371 673 396 673 q 420 673 439 657 q 457 641 457 620 q 457 609 437 589 l 364 512 l 465 544 q 486 551 493 551 q 506 551 518 534 q 530 517 530 497 q 530 478 516 460 q 502 442 487 442 q 480 442 459 452 l 363 499 l 425 412 q 440 390 440 382 q 440 364 422 348 q 404 333 383 333 q 363 333 348 343 q 333 353 333 367 q 333 371 335 390 l 350 495 l 287 409 q 273 392 268 388 q 263 384 252 384 q 229 384 212 402 q 195 421 195 446 q 195 467 203 475 q 211 482 238 487 z"},"Y":{"x_min":0,"x_max":898,"ha":898,"o":"m 905 550 l 729 117 l 795 117 q 862 117 862 69 q 862 37 839 18 q 815 0 772 0 l 681 0 l 646 -90 q 586 -239 521 -300 q 457 -361 361 -361 q 270 -361 209 -301 q 149 -240 149 -150 q 149 -82 185 -24 q 221 33 286 69 q 370 116 517 116 l 595 117 l 611 157 q 585 145 554 145 q 485 145 439 187 q 394 229 394 294 q 394 328 416 392 l 427 420 l 437 449 q 448 480 448 500 q 448 524 428 541 q 407 557 378 557 q 332 557 293 514 q 254 471 254 420 q 254 391 267 374 q 280 357 314 344 q 349 331 349 299 q 349 271 328 253 q 307 234 276 234 q 214 234 170 286 q 126 338 126 411 q 126 518 207 597 q 287 676 395 676 q 475 676 528 628 q 581 580 581 506 q 581 471 568 438 l 549 386 q 531 337 531 317 q 531 294 548 278 q 565 262 589 262 q 625 262 649 287 q 674 312 699 374 l 793 606 q 807 640 827 653 q 847 667 883 667 l 999 667 q 1066 667 1066 621 q 1066 587 1042 568 q 1019 550 976 550 z m 547 0 q 445 0 390 -20 q 339 -38 310 -72 q 281 -105 281 -146 q 281 -185 306 -211 q 331 -237 367 -237 q 412 -237 448 -198 q 483 -158 519 -70 z"},"c":{"x_min":0,"x_max":380,"ha":380,"o":"m 326 0 l 184 0 q 123 0 85 43 q 46 86 46 154 q 46 246 109 313 q 172 380 257 380 q 315 380 351 348 q 387 316 387 264 q 387 228 369 205 q 351 182 323 182 q 278 182 278 224 q 278 230 278 234 q 278 240 278 245 q 278 279 245 279 q 213 279 187 245 q 161 211 161 170 q 161 135 182 121 q 203 106 254 106 l 346 106 q 408 106 408 63 q 408 34 386 17 q 364 0 326 0 z"},"!":{"x_min":0,"x_max":290,"ha":290,"o":"m 154 123 q 182 123 202 103 q 222 83 222 55 q 222 27 202 7 q 182 -13 154 -13 q 126 -13 106 7 q 86 27 86 55 q 86 83 106 103 q 126 123 154 123 z m 374 515 l 267 226 q 239 151 201 151 q 182 151 169 165 q 155 178 155 198 q 155 210 161 229 l 253 563 q 271 626 322 626 q 349 626 367 608 q 386 591 386 565 q 386 548 374 515 z"},"/":{"x_min":0,"x_max":375,"ha":375,"o":"m 62 -91 l 353 654 q 370 700 407 700 q 422 700 433 691 q 444 681 444 667 q 444 658 436 638 l 145 -108 q 127 -153 91 -153 q 75 -153 64 -144 q 53 -135 53 -121 q 53 -112 58 -100 z"},"[":{"x_min":0,"x_max":455,"ha":455,"o":"m 464 580 l 236 -13 l 311 -13 q 349 -13 366 -24 q 382 -36 382 -62 q 382 -133 289 -133 l 131 -133 q 73 -133 73 -89 q 73 -75 87 -40 l 348 632 q 362 670 381 685 q 399 700 432 700 l 563 700 l 584 700 q 603 700 615 688 q 628 675 628 656 q 628 623 601 599 q 579 580 519 580 z"},"6":{"x_min":0,"x_max":467,"ha":467,"o":"m 327 404 q 344 407 352 407 q 408 407 447 363 q 486 319 486 255 q 486 147 416 70 q 347 -7 250 -7 q 174 -7 127 39 q 80 85 80 160 q 80 230 139 324 l 280 549 q 316 606 358 606 q 380 606 395 592 q 411 578 411 558 q 411 536 395 510 l 386 498 z m 307 306 q 269 306 235 261 q 200 216 200 166 q 200 139 216 121 q 232 103 256 103 q 296 103 332 147 q 367 192 367 243 q 367 271 350 289 q 334 306 307 306 z"},"r":{"x_min":0,"x_max":408,"ha":408,"o":"m 168 267 l 151 226 q 129 171 93 171 q 71 171 56 184 q 42 197 42 217 q 42 228 52 255 l 107 391 q 127 440 164 440 q 200 440 208 406 l 212 391 q 215 379 221 376 q 227 374 250 374 l 364 374 q 428 374 428 329 q 428 267 347 267 l 342 262 q 264 188 264 147 q 264 106 309 106 l 371 106 q 433 106 433 63 q 433 33 411 17 q 389 0 350 0 l 254 0 q 206 0 175 34 q 144 67 144 121 q 144 155 160 188 q 177 220 219 267 z"},"2":{"x_min":0,"x_max":467,"ha":467,"o":"m 248 107 l 393 107 q 455 107 455 63 q 455 34 433 17 q 411 0 372 0 l 129 0 q 100 0 82 15 q 64 30 64 56 q 64 83 88 107 l 362 389 q 385 413 385 438 q 385 462 367 479 q 349 497 324 497 q 297 497 279 479 q 260 461 260 437 q 260 417 273 394 q 284 374 284 357 q 284 333 269 317 q 253 302 228 302 q 191 302 165 338 q 139 374 139 426 q 139 502 194 554 q 250 606 331 606 q 409 606 459 560 q 509 514 509 441 q 509 373 457 320 z"},"{":{"x_min":0,"x_max":433,"ha":433,"o":"m 270 297 q 299 272 299 241 q 299 215 283 171 l 239 58 l 234 45 q 226 22 225 10 q 224 -10 267 -13 q 301 -15 314 -26 q 328 -37 328 -62 q 328 -95 305 -114 q 282 -133 241 -133 l 221 -133 l 205 -133 l 169 -132 q 70 -132 70 -63 q 70 -29 89 21 l 138 150 q 152 185 152 205 q 152 223 128 238 q 107 250 102 258 q 96 266 96 282 q 96 341 163 356 q 196 363 216 383 q 235 402 251 444 l 291 546 q 349 699 483 699 l 505 700 l 521 700 l 543 700 q 602 700 602 652 q 602 580 505 580 q 462 580 446 567 q 430 555 412 509 l 379 422 q 360 373 337 346 q 313 319 270 297 z"},"9":{"x_min":0,"x_max":467,"ha":467,"o":"m 287 195 l 271 195 q 207 195 167 238 q 128 281 128 350 q 128 451 201 532 q 268 606 361 606 q 438 606 487 559 q 535 512 535 438 q 535 373 493 306 l 331 51 q 310 17 294 5 q 277 -7 253 -7 q 231 -7 216 8 q 201 22 201 42 q 201 66 226 104 z m 355 499 q 317 499 282 453 q 248 407 248 357 q 248 331 264 314 q 280 296 305 296 q 345 296 380 341 q 415 386 415 436 q 415 463 398 481 q 381 499 355 499 z"}," ":{"x_min":0,"x_max":250,"ha":250,"o":""},"I":{"x_min":0,"x_max":588,"ha":588,"o":"m 433 117 l 515 117 q 582 117 582 70 q 582 37 558 18 q 535 0 492 0 l 403 0 q 349 0 321 21 q 293 42 293 81 q 293 109 313 159 l 412 400 q 441 473 441 500 q 441 522 421 540 q 401 557 375 557 q 327 557 287 515 q 248 473 248 420 q 248 390 261 374 q 274 357 310 343 q 342 330 342 299 q 342 271 321 253 q 299 234 268 234 q 207 234 163 286 q 120 338 120 411 q 120 517 200 597 q 280 676 386 676 q 466 676 520 629 q 573 583 573 513 q 573 462 548 400 z"},"H":{"x_min":0,"x_max":1032,"ha":1032,"o":"m 907 250 l 853 117 l 938 117 l 950 117 q 1005 117 1005 69 q 1005 37 981 18 q 957 0 915 0 l 814 0 q 767 0 739 22 q 711 43 711 81 q 711 104 723 132 l 730 151 l 771 250 l 615 250 l 520 16 q 422 -226 227 -226 q 124 -226 56 -161 q -11 -97 -11 3 q -11 81 28 151 q 67 221 139 272 q 199 314 279 339 q 358 364 436 364 l 505 366 l 526 367 l 622 601 l 627 615 q 651 673 704 673 q 728 673 744 659 q 760 645 760 624 q 760 607 747 574 l 663 367 l 818 367 l 913 599 l 918 613 q 943 673 997 673 q 1020 673 1036 659 q 1052 644 1052 623 q 1052 606 1038 571 l 955 367 l 992 367 l 1005 367 q 1060 367 1060 319 q 1060 287 1036 268 q 1012 250 970 250 z m 479 250 l 453 250 q 308 250 222 184 q 177 150 151 105 q 125 61 125 18 q 125 -33 156 -66 q 187 -100 233 -100 q 337 -100 405 68 z"},"4":{"x_min":0,"x_max":467,"ha":467,"o":"m 426 233 l 454 233 q 516 233 516 189 q 516 160 494 143 q 472 126 433 126 l 382 126 l 356 62 l 351 48 q 328 -7 279 -7 q 258 -7 244 7 q 229 21 229 40 q 229 56 242 87 l 257 126 l 157 126 q 115 126 91 146 q 67 166 67 200 q 67 233 89 258 l 108 277 l 351 538 q 416 607 466 607 q 498 607 519 587 q 540 566 540 536 q 540 514 525 478 z m 301 233 l 390 433 l 211 233 z"},"~":{"x_min":0,"x_max":667,"ha":667,"o":"m 158 562 l 90 607 q 95 618 98 624 q 128 691 159 718 q 190 744 241 744 q 274 744 345 717 q 410 693 434 693 q 458 693 473 704 q 488 715 506 746 l 576 705 q 542 633 507 603 q 471 574 419 574 q 392 574 319 600 q 251 625 233 625 q 208 625 193 612 q 178 600 158 562 z"},"D":{"x_min":0,"x_max":914,"ha":914,"o":"m 536 550 l 488 550 l 475 550 q 420 550 420 597 q 420 626 443 646 q 465 667 497 667 l 510 667 l 653 667 q 797 667 874 598 q 950 530 950 401 q 950 206 820 42 q 746 -49 653 -91 q 560 -133 430 -133 l 396 -133 l 390 -147 q 356 -223 336 -254 q 317 -285 286 -313 q 204 -388 99 -388 q 12 -388 -44 -337 q -100 -285 -100 -206 q -100 -157 -76 -114 q -52 -71 -11 -47 q 42 -17 133 -17 l 306 -17 z m 443 -17 l 463 -17 q 614 -17 716 118 q 766 182 794 257 q 823 333 823 396 q 823 468 783 509 q 743 550 674 550 z m 259 -133 l 129 -133 q 34 -133 34 -201 q 34 -229 55 -248 q 76 -267 106 -267 q 151 -267 191 -232 q 232 -196 259 -133 z"},"^":{"x_min":0,"x_max":500,"ha":500,"o":"m 136 338 l 7 338 l 169 670 l 331 670 l 493 338 l 364 338 l 250 572 z"},"0":{"x_min":0,"x_max":467,"ha":467,"o":"m 383 607 q 455 607 498 557 q 540 507 540 423 q 540 319 496 211 q 453 104 386 46 q 321 -10 232 -10 q 155 -10 111 36 q 66 82 66 162 q 66 262 112 371 q 158 479 228 542 q 299 607 383 607 z m 371 502 q 313 502 254 397 q 224 344 205 281 q 185 219 185 176 q 185 141 201 119 q 218 98 245 98 q 302 98 354 188 q 384 241 405 309 q 425 376 425 426 q 425 502 371 502 z"},"F":{"x_min":0,"x_max":814,"ha":814,"o":"m 648 367 l 711 367 l 724 367 q 778 367 778 320 q 778 291 756 270 q 734 250 701 250 l 688 250 l 601 250 l 506 16 q 407 -226 214 -226 q 113 -226 46 -161 q -20 -96 -20 3 q -20 81 19 151 q 59 221 129 272 q 189 314 269 339 q 349 364 427 364 l 496 366 l 517 367 l 611 603 l 616 616 q 627 646 645 656 q 662 667 703 667 l 954 667 q 1021 667 1021 619 q 1021 590 999 570 q 977 550 944 550 l 931 550 l 723 550 z m 470 250 l 443 250 q 299 250 212 184 q 116 110 116 18 q 116 -32 146 -66 q 177 -100 222 -100 q 328 -100 396 68 z"},"`":{"x_min":0,"x_max":500,"ha":500,"o":"m 326 517 l 347 470 q 353 456 353 443 q 353 430 343 420 q 333 410 319 410 q 303 410 287 423 l 229 466 q 201 486 201 508 q 201 524 212 535 q 224 546 241 546 l 277 546 q 313 546 326 517 z"},"k":{"x_min":0,"x_max":430,"ha":430,"o":"m 344 207 l 419 88 q 434 66 434 52 q 434 29 415 11 q 396 -7 373 -7 q 352 -7 337 15 l 331 24 l 218 193 l 163 58 q 137 -7 86 -7 q 65 -7 51 6 q 36 19 36 38 q 36 52 44 70 l 49 83 l 258 599 l 264 612 q 286 667 335 667 q 356 667 371 653 q 385 639 385 620 q 385 605 377 586 l 372 573 l 248 267 l 357 348 q 392 374 416 374 q 437 374 450 360 q 464 347 464 328 q 464 295 428 268 l 417 260 z"},"u":{"x_min":0,"x_max":481,"ha":481,"o":"m 390 106 l 447 106 q 480 106 495 96 q 509 86 509 63 q 509 34 487 17 q 465 0 426 0 l 339 0 q 298 0 284 32 q 257 0 217 0 l 146 0 q 103 0 74 27 q 46 54 46 95 q 46 118 59 149 l 125 312 q 153 380 201 380 q 222 380 237 367 q 251 354 251 334 q 251 319 244 300 l 238 287 l 187 162 l 182 147 q 177 134 177 128 q 176 106 205 106 q 266 106 286 155 l 347 305 q 374 374 424 374 q 444 374 459 360 q 474 346 474 327 q 474 312 461 280 z"},"]":{"x_min":0,"x_max":401,"ha":401,"o":"m 170 -13 l 398 580 l 357 580 q 319 580 302 591 q 286 603 286 629 q 286 700 379 700 l 503 700 q 562 700 562 656 q 562 643 557 629 l 548 606 l 287 -65 q 272 -103 254 -118 q 235 -133 203 -133 l 71 -133 l 50 -133 q 32 -133 19 -121 q 7 -108 7 -89 q 7 -56 34 -32 q 56 -13 116 -13 z"},"U":{"x_min":0,"x_max":854,"ha":854,"o":"m 890 550 l 734 167 q 694 70 640 26 q 585 -19 505 -19 q 428 -19 375 28 q 322 75 322 143 q 322 193 354 271 l 406 400 q 436 473 436 499 q 436 523 415 540 q 395 557 365 557 q 317 557 278 515 q 238 473 238 422 q 238 392 252 375 q 266 357 300 344 q 336 330 336 298 q 336 271 315 253 q 294 234 263 234 q 201 234 157 286 q 113 337 113 411 q 113 517 193 597 q 273 676 380 676 q 461 676 514 629 q 568 581 568 509 q 568 463 542 400 l 468 217 q 452 177 452 154 q 452 129 468 114 q 484 99 511 99 q 544 99 567 122 q 589 145 613 204 l 773 599 q 791 642 809 654 q 827 667 872 667 l 977 667 q 1044 667 1044 621 q 1044 586 1021 568 q 998 550 955 550 z"},"o":{"x_min":0,"x_max":414,"ha":414,"o":"m 272 380 q 343 380 388 335 q 434 291 434 221 q 434 169 410 117 q 386 66 348 35 q 323 15 296 8 q 269 0 220 0 q 140 0 112 19 q 47 64 47 152 q 47 245 114 312 q 181 380 272 380 z m 260 276 q 224 276 194 241 q 165 205 165 162 q 165 105 228 105 q 265 105 285 128 q 318 166 318 214 q 318 242 302 259 q 286 276 260 276 z"},"N":{"x_min":0,"x_max":994,"ha":994,"o":"m 1045 550 l 848 63 l 838 41 q 817 -7 770 -7 q 731 -7 715 14 q 699 35 695 91 l 672 385 l 570 133 q 509 -18 477 -73 q 445 -127 394 -167 q 319 -225 223 -225 q 121 -225 57 -160 q -7 -96 -7 7 q -7 145 94 248 q 147 303 229 337 q 310 372 388 372 q 429 372 453 355 q 477 338 477 309 q 477 280 458 265 q 438 250 395 247 q 297 237 238 202 q 188 172 159 124 q 130 76 130 24 q 130 -32 159 -64 q 188 -96 238 -96 q 296 -96 340 -45 q 384 6 436 133 l 629 609 q 655 673 708 673 q 769 673 774 601 l 800 275 l 932 601 l 940 620 q 959 666 1007 666 l 1027 667 l 1127 667 q 1195 667 1195 621 q 1195 587 1171 568 q 1147 550 1104 550 z"},"+":{"x_min":0,"x_max":467,"ha":467,"o":"m 276 350 l 321 460 q 345 517 389 517 q 410 517 424 505 q 438 493 438 475 q 438 463 428 439 l 392 350 l 468 350 q 530 350 530 310 q 530 282 508 266 q 486 250 448 250 l 351 250 l 306 140 q 282 83 237 83 q 217 83 203 95 q 189 107 189 125 q 189 136 199 161 l 235 250 l 158 250 q 97 250 97 291 q 97 318 119 334 q 141 350 179 350 z"},"G":{"x_min":0,"x_max":753,"ha":753,"o":"m 621 117 l 693 117 q 761 117 761 69 q 761 37 737 18 q 713 0 670 0 l 573 0 l 537 -90 q 478 -239 413 -300 q 349 -361 252 -361 q 162 -361 101 -301 q 40 -241 40 -150 q 40 -8 177 69 q 260 116 406 116 l 484 117 l 500 158 q 463 145 425 145 q 350 145 304 197 q 258 249 258 333 l 191 333 l 178 333 q 124 333 124 380 q 124 410 146 430 q 168 450 201 450 l 213 450 l 284 450 q 337 556 419 616 q 500 676 590 676 q 665 676 712 632 q 759 588 759 519 q 759 421 672 369 q 614 333 497 333 l 386 333 l 386 324 q 386 261 459 261 q 492 261 526 281 l 552 296 q 585 315 609 315 q 636 315 654 299 q 671 283 671 258 q 671 242 658 208 z m 437 0 q 333 0 279 -20 q 228 -38 199 -72 q 169 -105 169 -146 q 169 -185 195 -211 q 220 -237 256 -237 q 301 -237 337 -198 q 373 -158 408 -70 z m 421 450 l 516 450 q 637 450 637 516 q 637 536 621 549 q 605 562 581 562 q 543 562 501 532 q 458 502 421 450 z"},"q":{"x_min":0,"x_max":412,"ha":412,"o":"m 240 -233 l 293 -233 q 355 -233 355 -277 q 355 -307 334 -323 q 312 -340 272 -340 l 182 -340 q 149 -340 128 -323 q 108 -307 108 -280 q 108 -260 122 -227 l 222 21 q 196 0 161 0 q 112 0 79 37 q 47 75 47 130 q 47 182 70 236 q 93 290 129 325 q 188 380 268 380 q 334 380 377 342 q 419 304 419 243 q 419 208 400 162 z m 266 129 l 300 212 q 305 226 305 239 q 305 254 292 264 q 278 274 259 274 q 226 274 196 236 q 166 198 166 155 q 166 107 217 107 q 232 107 247 114 q 263 121 266 129 z"},"d":{"x_min":0,"x_max":473,"ha":473,"o":"m 381 106 l 437 106 q 499 106 499 63 q 499 33 477 17 q 455 0 417 0 l 351 0 q 312 0 295 31 q 264 0 228 0 l 166 0 q 112 0 79 37 q 47 74 47 136 q 47 230 111 305 q 175 380 255 380 q 314 380 350 338 l 458 605 q 486 673 536 673 q 557 673 572 660 q 586 646 586 627 q 586 612 579 593 l 573 580 z m 203 104 l 221 104 q 255 104 266 131 l 302 221 q 309 238 309 247 q 309 261 297 271 q 284 282 266 282 q 228 282 195 239 q 162 197 162 147 q 162 104 203 104 z"},"1":{"x_min":0,"x_max":467,"ha":467,"o":"m 343 492 l 310 492 q 247 492 247 536 q 247 566 269 583 q 291 600 331 600 l 428 600 q 487 600 487 553 q 487 540 479 521 l 292 61 q 265 -7 216 -7 q 195 -7 180 7 q 166 21 166 40 q 166 54 173 73 l 179 86 z"},"5":{"x_min":0,"x_max":467,"ha":467,"o":"m 336 490 l 299 400 q 320 405 335 405 q 399 405 439 360 q 478 315 478 242 q 478 135 410 63 q 342 -10 242 -10 q 169 -10 123 32 q 77 73 77 139 q 77 187 98 218 q 120 250 154 250 q 178 250 192 236 q 207 223 207 201 q 207 191 204 179 l 200 160 q 198 152 198 143 q 198 125 212 112 q 227 99 247 99 q 290 99 325 143 q 359 188 359 243 q 359 271 344 288 q 330 305 306 305 q 289 305 272 295 l 240 278 q 224 270 207 270 q 183 270 167 285 q 152 300 152 323 q 152 335 160 356 l 239 551 q 252 583 267 591 q 282 600 322 600 l 486 600 q 520 600 535 590 q 550 579 550 556 q 550 524 527 507 q 505 490 465 490 z"}}}
